<svg width="103" height="103" viewBox="0 0 103 103" fill="none" xmlns="http://www.w3.org/2000/svg">
<path d="M81.0312 69.5469C74.7001 69.5469 69.5469 74.6984 69.5469 81.0312C69.5469 87.3641 74.7001 92.5156 81.0312 92.5156C87.3624 92.5156 92.5156 87.3641 92.5156 81.0312C92.5156 74.6984 87.3624 69.5469 81.0312 69.5469ZM81.0312 89.2344C76.508 89.2344 72.8281 85.5545 72.8281 81.0312C72.8281 76.508 76.508 72.8281 81.0312 72.8281C85.5545 72.8281 89.2344 76.508 89.2344 81.0312C89.2344 85.5545 85.5545 89.2344 81.0312 89.2344Z" fill="#0079FC"/>
<path d="M81.0312 76.1094C78.3177 76.1094 76.1094 78.3177 76.1094 81.0312C76.1094 83.7448 78.3177 85.9531 81.0312 85.9531C83.7448 85.9531 85.9531 83.7448 85.9531 81.0312C85.9531 78.3177 83.7448 76.1094 81.0312 76.1094ZM81.0312 82.6719C80.1256 82.6719 79.3906 81.9352 79.3906 81.0312C79.3906 80.1273 80.1256 79.3906 81.0312 79.3906C81.9369 79.3906 82.6719 80.1273 82.6719 81.0312C82.6719 81.9352 81.9369 82.6719 81.0312 82.6719Z" fill="#0079FC"/>
<path d="M98.8878 75.422C98.3923 75.2595 98.0068 74.9035 97.8263 74.4409C97.7427 74.2259 97.6557 74.0143 97.5638 73.8027C97.3702 73.3564 97.3932 72.833 97.6262 72.3704C98.6122 70.4213 98.2365 68.0736 96.6927 66.5265L95.536 65.3715C93.9922 63.8277 91.6444 63.4503 89.6937 64.4363C89.2327 64.6726 88.7094 64.6939 88.2598 64.4987C88.0482 64.4068 87.8333 64.3182 87.6184 64.2345C87.6085 64.2313 87.6036 64.2214 87.5938 64.2181V44.9375H88.8242C91.7642 44.9375 94.1562 42.5455 94.1562 39.6055C94.1562 38.4603 93.7789 37.3234 93.0898 36.4062L84.9688 25.5781C84.3847 24.7988 83.5709 24.2492 82.6719 23.9277V5.5625C82.6719 2.84891 80.4636 0.640625 77.75 0.640625H5.5625C2.84891 0.640625 0.640625 2.84891 0.640625 5.5625V77.75C0.640625 80.4636 2.84891 82.6719 5.5625 82.6719H59.772C60.0739 84.5045 61.3651 86.0466 63.1747 86.6405C63.6702 86.803 64.0557 87.159 64.2362 87.6216C64.3198 87.8366 64.4068 88.0482 64.4987 88.2598C64.6923 88.7061 64.6693 89.2295 64.4363 89.6921C63.4503 91.6412 63.826 93.9889 65.3698 95.5344L66.5265 96.6894C68.0703 98.2332 70.4164 98.6105 72.3688 97.6245C72.8314 97.3899 73.3548 97.3702 73.8027 97.5622C74.0143 97.6541 74.2292 97.7427 74.4441 97.8263C74.9019 98.0035 75.2579 98.3923 75.422 98.8878C76.1028 100.965 78.0289 102.359 80.2142 102.359H81.8483C84.0336 102.359 85.9597 100.963 86.6405 98.8878C86.8046 98.3923 87.159 98.0052 87.6151 97.828C87.8333 97.7443 88.0482 97.6557 88.2615 97.5622C88.7094 97.367 89.2295 97.3916 89.6937 97.6245C91.6428 98.6105 93.9905 98.2332 95.536 96.6894L96.6927 95.5327C98.2365 93.9873 98.6122 91.6395 97.6262 89.6921C97.3916 89.2278 97.3702 88.7061 97.5655 88.2566C97.6557 88.0466 97.7427 87.8349 97.828 87.6167C98.0068 87.1573 98.394 86.8013 98.8911 86.6389C100.965 85.958 102.359 84.0336 102.359 81.8483V80.2142C102.359 78.0305 100.963 76.1045 98.8878 75.422ZM90.4648 38.375C90.729 38.7277 90.875 39.1658 90.875 39.6055C90.875 40.7359 89.9546 41.6562 88.8242 41.6562H84.3125V60.3561C83.5759 59.9427 82.7359 59.7031 81.8483 59.7031H80.2142C79.3266 59.7031 78.4866 59.9427 77.75 60.3561V41.6562H73.2383C72.1079 41.6562 71.1875 40.7359 71.1875 39.6055C71.1875 39.1641 71.3335 38.7277 71.5977 38.375L79.7204 27.5452C80.3323 26.7249 81.7285 26.7249 82.3438 27.5452L90.4648 38.375ZM5.5625 3.92188H77.75C78.6556 3.92188 79.3906 4.65852 79.3906 5.5625V13.7656H3.92188V5.5625C3.92188 4.65852 4.65688 3.92188 5.5625 3.92188ZM3.92188 77.75V17.0469H79.3906V23.9277C78.4899 24.2492 77.6778 24.8005 77.0954 25.5781L68.9727 36.4062C68.2836 37.3234 67.9062 38.4603 67.9062 39.6055C67.9062 42.5455 70.2983 44.9375 73.2383 44.9375H74.4688V64.2198C74.4605 64.223 74.4556 64.2313 74.4474 64.2345C74.2292 64.3182 74.0143 64.4068 73.801 64.5003C73.3515 64.6923 72.8298 64.6709 72.3688 64.438C70.4181 63.452 68.072 63.8293 66.5265 65.3731L65.3682 66.5298C63.826 68.0752 63.4503 70.423 64.4363 72.3704C64.6709 72.8347 64.6923 73.3564 64.497 73.8059C64.4068 74.0159 64.3198 74.2276 64.2345 74.4458C64.0557 74.9052 63.6685 75.2612 63.1714 75.4236C61.3618 76.0175 60.0723 77.5597 59.7704 79.3923H5.5625C4.65688 79.3906 3.92188 78.654 3.92188 77.75ZM99.0781 81.8483C99.0781 82.6112 98.5892 83.2838 97.8657 83.5234C96.4334 83.9926 95.3047 85.0524 94.7715 86.4256C94.7009 86.6028 94.6288 86.78 94.5533 86.9539C93.9692 88.2976 94.0217 89.8348 94.696 91.1736C95.0405 91.8545 94.9093 92.6764 94.3712 93.2145L93.2145 94.3712C92.6731 94.9093 91.8561 95.0438 91.1736 94.6977C89.8365 94.0234 88.3025 93.9709 86.9555 94.5549C86.7833 94.6288 86.6094 94.7009 86.4305 94.7715C85.0541 95.3063 83.9959 96.4351 83.525 97.8673C83.2855 98.5909 82.6128 99.0781 81.8483 99.0781H80.2142C79.4497 99.0781 78.7787 98.5909 78.5391 97.8624C78.0683 96.4318 77.0084 95.3047 75.6303 94.7682C75.4548 94.6993 75.2809 94.6288 75.1102 94.5549C74.4901 94.2842 73.8289 94.1497 73.1628 94.1497C72.3868 94.1497 71.6091 94.3334 70.8889 94.696C70.2064 95.0405 69.3877 94.9093 68.848 94.3679L67.6913 93.2129C67.1532 92.6731 67.022 91.8528 67.3665 91.1703C68.0408 89.8332 68.0933 88.2943 67.5109 86.9523C67.4337 86.7784 67.3616 86.6012 67.2927 86.4256C66.7578 85.0491 65.6274 83.9909 64.1968 83.5201C63.4716 83.2855 62.9844 82.6112 62.9844 81.8483V80.2142C62.9844 79.4513 63.4733 78.7787 64.1968 78.5391C65.6291 78.0699 66.7578 77.0101 67.291 75.6369C67.3616 75.4597 67.4337 75.2825 67.5092 75.1086C68.0933 73.7649 68.0408 72.2277 67.3665 70.8889C67.022 70.208 67.1532 69.3861 67.6913 68.848L68.848 67.6913C69.3877 67.1532 70.2064 67.0187 70.8889 67.3648C72.226 68.0408 73.7633 68.0933 75.107 67.5076C75.2792 67.4337 75.4531 67.3616 75.632 67.291C77.0084 66.7562 78.0666 65.6274 78.5375 64.1952C78.777 63.4716 79.4497 62.9844 80.2142 62.9844H81.8483C82.6128 62.9844 83.2838 63.4716 83.5234 64.2001C83.9942 65.6307 85.0541 66.7578 86.4322 67.2943C86.6077 67.3632 86.7816 67.4337 86.9523 67.5076C88.2959 68.0916 89.8365 68.0408 91.172 67.3648C91.8545 67.0187 92.6715 67.1532 93.2129 67.693L94.3679 68.8463C94.9077 69.3877 95.0389 70.208 94.6944 70.8905C94.0201 72.2277 93.9676 73.7666 94.55 75.1086C94.6271 75.2825 94.6993 75.4597 94.7682 75.6352C95.303 77.0117 96.4334 78.0699 97.8641 78.5408C98.5909 78.777 99.0781 79.4513 99.0781 80.2142V81.8483Z" fill="#0079FC"/>
<path d="M7.20312 7.20312H10.4844V10.4844H7.20312V7.20312Z" fill="#0079FC"/>
<path d="M13.7656 7.20312H17.0469V10.4844H13.7656V7.20312Z" fill="#0079FC"/>
<path d="M20.3281 7.20312H23.6094V10.4844H20.3281V7.20312Z" fill="#0079FC"/>
<path d="M21.9688 49.8594C30.1112 49.8594 36.7344 43.2345 36.7344 35.0938C36.7344 26.953 30.1112 20.3281 21.9688 20.3281C13.8263 20.3281 7.20312 26.953 7.20312 35.0938C7.20312 43.2345 13.8263 49.8594 21.9688 49.8594ZM15.7278 44.7209C16.5416 41.986 19.0648 40.0156 21.9688 40.0156C24.8727 40.0156 27.3959 41.986 28.2097 44.7209C26.4099 45.8907 24.2689 46.5781 21.9688 46.5781C19.6686 46.5781 17.5276 45.8907 15.7278 44.7209ZM18.6875 33.4531C18.6875 31.6435 20.1591 30.1719 21.9688 30.1719C23.7784 30.1719 25.25 31.6435 25.25 33.4531C25.25 35.2627 23.7784 36.7344 21.9688 36.7344C20.1591 36.7344 18.6875 35.2627 18.6875 33.4531ZM21.9688 23.6094C28.2999 23.6094 33.4531 28.7609 33.4531 35.0938C33.4531 37.873 32.4589 40.4258 30.8101 42.4142C29.9225 40.5341 28.4804 38.9902 26.6905 37.9911C27.8241 36.8115 28.5312 35.2168 28.5312 33.4531C28.5312 29.8339 25.588 26.8906 21.9688 26.8906C18.3495 26.8906 15.4062 29.8339 15.4062 33.4531C15.4062 35.2168 16.1134 36.8115 17.2487 37.9911C15.4588 38.9902 14.0166 40.5341 13.1291 42.4142C11.4786 40.4258 10.4844 37.873 10.4844 35.0938C10.4844 28.7609 15.6376 23.6094 21.9688 23.6094Z" fill="#0079FC"/>
<path d="M69.5469 20.3281H40.0156V30.1719H69.5469V20.3281ZM66.2656 26.8906H43.2969V23.6094H66.2656V26.8906Z" fill="#0079FC"/>
<path d="M40.0156 33.4531H46.5781V36.7344H40.0156V33.4531Z" fill="#0079FC"/>
<path d="M49.8594 33.4531H64.625V36.7344H49.8594V33.4531Z" fill="#0079FC"/>
<path d="M40.0156 40.0156H64.625V43.2969H40.0156V40.0156Z" fill="#0079FC"/>
<path d="M40.0156 46.5781H64.625V49.8594H40.0156V46.5781Z" fill="#0079FC"/>
<path d="M7.20312 53.1406V76.1094H59.7031V53.1406H7.20312ZM56.4219 72.8281H10.4844V56.4219H56.4219V72.8281Z" fill="#0079FC"/>
</svg>
