<svg width="68" height="78" viewBox="0 0 68 78" fill="none" xmlns="http://www.w3.org/2000/svg">
<path d="M6.7064 2.02511H52.6927C55.2684 2.02511 57.3639 4.12058 57.3639 6.69636V8.40198C57.3639 8.95995 57.8161 9.41229 58.3742 9.41229C58.9322 9.41229 59.3845 8.96011 59.3845 8.40198V6.69636C59.3845 3.00667 56.3827 0.00463867 52.6928 0.00463867H6.7064C3.01625 0.00463867 0.0143738 3.00651 0.0143738 6.69636V63.1975C0.0143738 66.3793 2.27359 69.1382 5.38609 69.757C5.45234 69.77 5.51875 69.7767 5.58422 69.7764C6.05625 69.7764 6.47844 69.4437 6.5739 68.9631C6.68281 68.4157 6.32719 67.8842 5.77984 67.7753C3.60984 67.344 2.03484 65.4185 2.03484 63.1976V6.69636C2.03484 4.12058 4.13078 2.02511 6.7064 2.02511Z" fill="black"/>
<path d="M67.9856 71.6179V22.7143C67.9856 22.5147 67.8817 22.1921 67.6897 22.0001L54.0964 8.40678C53.9147 8.22506 53.6036 8.11084 53.3822 8.11084H14.9928C11.4759 8.11084 8.61484 10.9719 8.61484 14.4888V71.618C8.61484 75.1346 11.4759 77.9955 14.9928 77.9955H61.6077C65.1245 77.9955 67.9856 75.1344 67.9856 71.6179ZM64.5366 21.704H56.3323C55.2625 21.704 54.3923 20.8338 54.3923 19.764V11.5597L64.5366 21.704ZM61.6077 75.9751H14.9928C12.59 75.9751 10.6353 74.0205 10.6353 71.618V14.4887C10.6353 12.0858 12.5898 10.1312 14.9928 10.1312H52.3719V19.764C52.3719 21.9479 54.1484 23.7244 56.3323 23.7244H65.9651V71.6179C65.9651 74.0204 64.0106 75.9751 61.6077 75.9751Z" fill="black"/>
<path d="M17.6763 16.9279H32.7858C33.3438 16.9279 33.7961 16.4757 33.7961 15.9175C33.7961 15.3594 33.3439 14.9072 32.7858 14.9072H17.6763C17.1183 14.9072 16.6659 15.3594 16.6659 15.9175C16.6659 16.4757 17.1183 16.9279 17.6763 16.9279Z" fill="black"/>
<path d="M26.2413 21.2252C26.2413 20.6672 25.7891 20.2148 25.2309 20.2148H17.6763C17.1183 20.2148 16.6659 20.667 16.6659 21.2252C16.6659 21.7833 17.1181 22.2355 17.6763 22.2355H25.2309C25.7891 22.2355 26.2413 21.7833 26.2413 21.2252Z" fill="black"/>
<path d="M43.7406 56.9644H32.86C31.4019 56.9644 30.2156 58.1511 30.2156 59.6092C30.2156 61.0673 31.4019 62.2536 32.86 62.2536H43.7406C45.1988 62.2536 46.385 61.0673 46.385 59.6092C46.385 58.1511 45.1988 56.9644 43.7406 56.9644ZM43.7406 60.233H32.86C32.5159 60.233 32.2361 59.9531 32.2361 59.609C32.2361 59.265 32.5159 58.9847 32.86 58.9847H43.7406C44.0847 58.9847 44.3645 59.2648 44.3645 59.609C44.3645 59.9533 44.0847 60.233 43.7406 60.233Z" fill="black"/>
<path d="M43.7406 35H32.86C31.4019 35 30.2156 36.1867 30.2156 37.6448C30.2156 39.103 31.4019 40.2892 32.86 40.2892H43.7406C45.1988 40.2892 46.385 39.103 46.385 37.6448C46.385 36.1867 45.1988 35 43.7406 35ZM43.7406 38.2686H32.86C32.5159 38.2686 32.2361 37.9887 32.2361 37.6447C32.2361 37.3006 32.5159 37.0203 32.86 37.0203H43.7406C44.0847 37.0203 44.3645 37.3005 44.3645 37.6447C44.3645 37.9889 44.0847 38.2686 43.7406 38.2686Z" fill="black"/>
<path d="M43.7406 47H32.86C31.4019 47 30.2156 48.1867 30.2156 49.6448C30.2156 51.103 31.4019 52.2892 32.86 52.2892H43.7406C45.1988 52.2892 46.385 51.103 46.385 49.6448C46.385 48.1867 45.1988 47 43.7406 47ZM43.7406 50.2686H32.86C32.5159 50.2686 32.2361 49.9887 32.2361 49.6447C32.2361 49.3006 32.5159 49.0203 32.86 49.0203H43.7406C44.0847 49.0203 44.3645 49.3005 44.3645 49.6447C44.3645 49.9889 44.0847 50.2686 43.7406 50.2686Z" fill="black"/>
</svg>
