<svg width="80" height="80" viewBox="0 0 80 80" fill="none" xmlns="http://www.w3.org/2000/svg">
<path d="M12.7064 3.02511H58.6927C61.2684 3.02511 63.3639 5.12058 63.3639 7.69636V9.40198C63.3639 9.95995 63.8161 10.4123 64.3742 10.4123C64.9322 10.4123 65.3845 9.96011 65.3845 9.40198V7.69636C65.3845 4.00667 62.3827 1.00464 58.6928 1.00464H12.7064C9.01625 1.00464 6.01437 4.00651 6.01437 7.69636V64.1975C6.01437 67.3793 8.27359 70.1382 11.3861 70.757C11.4523 70.77 11.5187 70.7767 11.5842 70.7764C12.0562 70.7764 12.4784 70.4437 12.5739 69.9631C12.6828 69.4157 12.3272 68.8842 11.7798 68.7753C9.60984 68.344 8.03484 66.4185 8.03484 64.1976V7.69636C8.03484 5.12058 10.1308 3.02511 12.7064 3.02511Z" fill="black"/>
<path d="M73.9856 72.6179V23.7143C73.9856 23.5147 73.8817 23.1921 73.6897 23.0001L60.0964 9.40678C59.9147 9.22506 59.6036 9.11084 59.3822 9.11084H20.9928C17.4759 9.11084 14.6148 11.9719 14.6148 15.4888V72.618C14.6148 76.1346 17.4759 78.9955 20.9928 78.9955H67.6077C71.1245 78.9955 73.9856 76.1344 73.9856 72.6179ZM70.5366 22.704H62.3323C61.2625 22.704 60.3923 21.8338 60.3923 20.764V12.5597L70.5366 22.704ZM67.6077 76.9751H20.9928C18.59 76.9751 16.6353 75.0205 16.6353 72.618V15.4887C16.6353 13.0858 18.5898 11.1312 20.9928 11.1312H58.3719V20.764C58.3719 22.9479 60.1484 24.7244 62.3323 24.7244H71.9651V72.6179C71.9651 75.0204 70.0106 76.9751 67.6077 76.9751Z" fill="black"/>
<path d="M23.6762 17.9279H38.7858C39.3437 17.9279 39.7961 17.4757 39.7961 16.9175C39.7961 16.3594 39.3439 15.9072 38.7858 15.9072H23.6762C23.1183 15.9072 22.6659 16.3594 22.6659 16.9175C22.6659 17.4757 23.1183 17.9279 23.6762 17.9279Z" fill="black"/>
<path d="M32.2412 22.2252C32.2412 21.6672 31.7891 21.2148 31.2309 21.2148H23.6762C23.1183 21.2148 22.6659 21.667 22.6659 22.2252C22.6659 22.7833 23.1181 23.2355 23.6762 23.2355H31.2309C31.7891 23.2355 32.2412 22.7833 32.2412 22.2252Z" fill="black"/>
<path d="M44.2959 30.2615C33.3734 30.2615 24.4873 39.1473 24.4873 50.0698C24.4873 60.9969 33.3736 69.8871 44.2959 69.8871C55.2231 69.8871 64.1133 60.9969 64.1133 50.0698C64.1133 39.1473 55.2231 30.2615 44.2959 30.2615ZM44.2959 67.8666C34.4875 67.8666 26.5078 59.8829 26.5078 50.0698C26.5078 40.2616 34.4875 32.2819 44.2959 32.2819C54.1091 32.2819 62.0928 40.2616 62.0928 50.0698C62.0928 59.8829 54.1091 67.8666 44.2959 67.8666Z" fill="black"/>
<path d="M38.1878 48.0428H38.8311V53.6761C38.8311 55.09 39.9814 56.2403 41.395 56.2403H47.2054C48.619 56.2403 49.7694 55.09 49.7694 53.6761V48.0428H50.4126C51.1762 48.0428 51.8565 47.6155 52.1876 46.9272C52.5187 46.2386 52.4284 45.4402 51.9517 44.8431L46.4147 37.9119C45.8981 37.2655 45.1273 36.8945 44.3003 36.8945C43.4733 36.8945 42.7025 37.2655 42.1859 37.9119L36.6486 44.8434C36.1723 45.4402 36.0819 46.2384 36.413 46.927C36.7439 47.6155 37.4242 48.0428 38.1878 48.0428ZM43.7644 39.1733C43.9436 38.9488 44.1772 38.9152 44.3003 38.9152C44.4234 38.9152 44.657 38.9488 44.8362 39.1733L50.3078 46.0223H48.7594C48.2014 46.0223 47.749 46.4745 47.749 47.0327V53.6763C47.749 53.9761 47.5051 54.22 47.2056 54.22H41.3951C41.0956 54.22 40.8517 53.9761 40.8517 53.6763V47.0327C40.8517 46.4747 40.3995 46.0223 39.8414 46.0223H38.293L43.7644 39.1733Z" fill="black"/>
<path d="M49.7406 57.9644H38.86C37.4019 57.9644 36.2156 59.1511 36.2156 60.6092C36.2156 62.0673 37.4019 63.2536 38.86 63.2536H49.7406C51.1988 63.2536 52.385 62.0673 52.385 60.6092C52.385 59.1511 51.1988 57.9644 49.7406 57.9644ZM49.7406 61.233H38.86C38.5159 61.233 38.2361 60.9531 38.2361 60.609C38.2361 60.265 38.5159 59.9847 38.86 59.9847H49.7406C50.0847 59.9847 50.3645 60.2648 50.3645 60.609C50.3645 60.9533 50.0847 61.233 49.7406 61.233Z" fill="black"/>
</svg>
