<svg width="67" height="67" viewBox="0 0 67 67" fill="none" xmlns="http://www.w3.org/2000/svg">
<g clip-path="url(#clip0_1_15149)">
<path d="M60.7188 54.4375H6.28125C5.72595 54.4375 5.1934 54.2169 4.80075 53.8243C4.40809 53.4316 4.1875 52.899 4.1875 52.3438V14.6562C4.18933 12.9909 4.85169 11.3943 6.02926 10.2168C7.20682 9.03919 8.80342 8.37683 10.4688 8.375H43.9688C44.524 8.375 45.0566 8.59559 45.4493 8.98825C45.8419 9.3809 46.0625 9.91345 46.0625 10.4688C46.0625 11.024 45.8419 11.5566 45.4493 11.9493C45.0566 12.3419 44.524 12.5625 43.9688 12.5625H10.4688C9.91361 12.563 9.38134 12.7838 8.9888 13.1763C8.59625 13.5688 8.3755 14.1011 8.375 14.6562V50.25H58.625V16.0591C58.625 15.5038 58.8456 14.9712 59.2382 14.5786C59.6309 14.1859 60.1635 13.9653 60.7188 13.9653C61.274 13.9653 61.8066 14.1859 62.1993 14.5786C62.5919 14.9712 62.8125 15.5038 62.8125 16.0591V52.3438C62.8125 52.899 62.5919 53.4316 62.1993 53.8243C61.8066 54.2169 61.274 54.4375 60.7188 54.4375Z" fill="white"/>
<path d="M61.1769 67H5.82334C4.76039 66.9132 3.76342 66.4495 3.01211 65.6926C2.26079 64.9357 1.80457 63.9353 1.72566 62.8718L0.678785 56.5905C0.521281 55.7296 0.547524 54.8451 0.755795 53.995C0.964066 53.1449 1.34966 52.3485 1.8873 51.6578C2.23532 51.2247 2.67481 50.8739 3.17429 50.6305C3.67377 50.3871 4.22089 50.2572 4.77646 50.25H62.2237C62.7793 50.2571 63.3265 50.3871 63.826 50.6305C64.3255 50.8738 64.7651 51.2247 65.1131 51.6578C65.6507 52.3483 66.0362 53.1446 66.2445 53.9945C66.4528 54.8444 66.4791 55.7287 66.3216 56.5895L65.2747 62.8718C65.1958 63.9353 64.7396 64.9358 63.9882 65.6927C63.2369 66.4496 62.2398 66.9132 61.1769 67ZM6.0748 62.8125H60.9252C61.038 62.6186 61.1123 62.4048 61.144 62.1827L62.1909 55.9014C62.2868 55.4031 62.2107 54.8869 61.975 54.4375H5.02499C4.78883 54.8874 4.71242 55.4041 4.80829 55.9031L5.85516 62.1844C5.88727 62.4059 5.96185 62.6192 6.0748 62.8125Z" fill="white"/>
<path d="M33.5 37.6875C31.4295 37.6875 29.4055 37.0735 27.6839 35.9232C25.9623 34.7729 24.6205 33.1379 23.8281 31.225C23.0358 29.3121 22.8285 27.2071 23.2324 25.1764C23.6363 23.1457 24.6334 21.2803 26.0975 19.8162C27.5616 18.3522 29.4269 17.3551 31.4577 16.9512C33.4884 16.5472 35.5933 16.7545 37.5062 17.5469C39.4191 18.3392 41.0541 19.6811 42.2045 21.4026C43.3548 23.1242 43.9688 25.1482 43.9688 27.2188C43.9655 29.9942 42.8615 32.6551 40.8989 34.6177C38.9364 36.5802 36.2755 37.6842 33.5 37.6875ZM33.5 20.9375C32.2577 20.9375 31.0433 21.3059 30.0103 21.9961C28.9774 22.6863 28.1723 23.6673 27.6969 24.815C27.2215 25.9628 27.0971 27.2257 27.3394 28.4442C27.5818 29.6626 28.18 30.7818 29.0585 31.6603C29.9369 32.5387 31.0562 33.137 32.2746 33.3793C33.493 33.6217 34.756 33.4973 35.9037 33.0219C37.0515 32.5465 38.0325 31.7414 38.7227 30.7084C39.4129 29.6755 39.7813 28.4611 39.7813 27.2188C39.7794 25.5534 39.1171 23.9568 37.9395 22.7793C36.7619 21.6017 35.1653 20.9393 33.5 20.9375Z" fill="white"/>
<path d="M43.9688 54.4375H23.0312C22.476 54.4375 21.9434 54.2169 21.5507 53.8243C21.1581 53.4316 20.9375 52.899 20.9375 52.3438V45.6046C20.9412 42.3954 22.2176 39.3187 24.4869 37.0494C26.7562 34.7801 29.8329 33.5037 33.0421 33.5H33.9581C37.1673 33.5037 40.244 34.7802 42.5132 37.0495C44.7824 39.3187 46.0588 42.3954 46.0625 45.6046V52.3438C46.0625 52.899 45.8419 53.4316 45.4493 53.8243C45.0566 54.2169 44.524 54.4375 43.9688 54.4375ZM25.125 50.25H41.875V45.6046C41.8726 43.5056 41.0378 41.4933 39.5536 40.0091C38.0694 38.5248 36.0571 37.6899 33.9581 37.6875H33.0421C30.9431 37.6899 28.9307 38.5248 27.4465 40.009C25.9623 41.4932 25.1274 43.5056 25.125 45.6046V50.25Z" fill="white"/>
<path d="M46.2955 21.6358C45.7402 21.6358 45.2077 21.4152 44.815 21.0225C44.4224 20.6299 44.2018 20.0973 44.2018 19.542V17.6181C43.4989 17.2395 42.9116 16.6779 42.5019 15.9927C42.0923 15.3075 41.8757 14.5243 41.875 13.726V4.42053C41.8764 3.24858 42.3426 2.12503 43.1713 1.29634C44 0.467637 45.1236 0.00144057 46.2955 0L62.5795 0C63.7514 0.00144057 64.875 0.467637 65.7037 1.29634C66.5324 2.12503 66.9986 3.24858 67 4.42053V13.726C66.9985 14.8978 66.5323 16.0212 65.7035 16.8498C64.8748 17.6783 63.7513 18.1443 62.5795 18.1455H51.6444L47.553 21.2166C47.1903 21.4887 46.749 21.6357 46.2955 21.6358ZM46.2955 4.1875C46.2342 4.18904 46.1758 4.21408 46.1325 4.25746C46.0891 4.30083 46.064 4.35921 46.0625 4.42053V13.726C46.0641 13.7872 46.0892 13.8454 46.1326 13.8886C46.176 13.9318 46.2343 13.9567 46.2955 13.958C46.7414 13.9577 47.1756 14.1 47.535 14.3639C47.8943 14.6278 48.16 14.9996 48.2932 15.4251L49.6897 14.3772C50.0526 14.1054 50.4938 13.9585 50.9472 13.9584H62.5795C62.6407 13.9571 62.6992 13.9322 62.7426 13.8889C62.786 13.8456 62.811 13.7873 62.8125 13.726V4.42053C62.811 4.35921 62.7859 4.30083 62.7425 4.25746C62.6992 4.21408 62.6408 4.18904 62.5795 4.1875H46.2955Z" fill="white"/>
</g>
<defs>
<clipPath id="clip0_1_15149">
<rect width="67" height="67" fill="white"/>
</clipPath>
</defs>
</svg>
